<svg height="512" viewBox="0 0 512 512" width="512" xmlns="http://www.w3.org/2000/svg"><path d="M20.804 449.468l-10.712 20.958a23.404 23.404 0 0031.492 31.492l20.958-10.712z" fill="#26457d"/><path d="M367.69 47.929l96.304 96.303-25.68 25.681L342.01 73.61z" fill="#e4fbef"/><path d="M446.345 126.575L464 144.23l-25.681 25.682-17.656-17.656z" fill="#d3effb"/><path d="M94.837 417.173l-48.159-48.159-25.874 80.454 20.869 20.869 20.869 20.869 80.454-25.874z" fill="#f1d59d"/><path d="M464.035 144.292l-96.318-96.318 30.501-30.501c13.299-13.299 34.86-13.299 48.159 0l48.159 48.159c13.299 13.299 13.299 34.86 0 48.159z" fill="#df75a5"/><path d="M494.536 65.633l-17.658-17.658c13.299 13.299 13.299 34.86 0 48.159l-30.501 30.501 17.658 17.658 30.501-30.501c13.299-13.299 13.299-34.861 0-48.159z" fill="#dd5790"/><path d="M342.033 73.659L46.678 369.014 42.347 395c-1.024 6.146 4.304 11.475 10.45 10.45l13.446-2.241a9.023 9.023 0 017.914 2.536l299.981-299.981z" fill="#ffe07d"/><path d="M406.245 137.871L106.264 437.852a9.023 9.023 0 012.536 7.914l-2.241 13.446c-1.024 6.146 4.304 11.475 10.45 10.45l25.987-4.331 295.355-295.355z" fill="#ffc250"/><path d="M374.139 105.765L74.158 405.746a9.023 9.023 0 012.536 7.914l-2.241 13.446c-1.024 6.146 4.304 11.475 10.45 10.45l13.446-2.241a9.023 9.023 0 017.914 2.536L406.244 137.87z" fill="#ffd064"/><path d="M499.839 60.329L451.68 12.171C443.832 4.323 433.397 0 422.298 0s-21.534 4.323-29.383 12.171L183.158 221.929c-2.929 2.929-2.929 7.677 0 10.606s7.677 2.929 10.606 0L342.036 84.264l21.499 21.499-290.65 290.65a16.565 16.565 0 00-7.872-.604l-13.459 2.241a1.51 1.51 0 01-1.365-.438 1.536 1.536 0 01-.446-1.383l3.935-23.608 115.336-115.336c2.929-2.929 2.929-7.677 0-10.606s-7.677-2.929-10.606 0L41.373 363.714a7.488 7.488 0 00-1.83 3.003h-.004l-25.688 79.876-10.437 20.42a30.822 30.822 0 005.665 35.917C15.031 508.882 22.91 512 30.91 512c4.781 0 9.607-1.115 14.086-3.404l20.419-10.437 79.876-25.688.001-.004a7.499 7.499 0 003.003-1.83l182.314-182.314c2.929-2.929 2.929-7.677 0-10.606s-7.677-2.929-10.606 0L139.389 458.331l-23.602 3.934a1.537 1.537 0 01-1.389-.446 1.518 1.518 0 01-.437-1.373l2.24-13.452a16.586 16.586 0 00-.604-7.871l290.649-290.649 21.499 21.499-83.014 83.014a7.5 7.5 0 005.303 12.803 7.474 7.474 0 005.303-2.197l144.5-144.499c16.204-16.201 16.204-42.563.002-58.765zM54.028 412.844l13.448-2.239c.66-.106 1.114.182 1.39.458.258.256.541.701.432 1.362l-2.239 13.442c-.883 5.274.846 10.679 4.626 14.459s9.184 5.509 14.452 4.627l13.448-2.239a1.51 1.51 0 011.377.445c.263.263.554.716.445 1.374l-2.238 13.44a16.595 16.595 0 003.037 12.599l-37.598 12.092-35.26-35.26 12.092-37.598c3.584 2.656 8.136 3.789 12.588 3.038zM38.171 495.24a15.865 15.865 0 01-18.485-2.916 15.86 15.86 0 01-2.916-18.484l6.02-11.779 27.159 27.159zm66.821-66.722a16.601 16.601 0 00-7.87-.6l-13.457 2.241a1.525 1.525 0 01-1.375-.438 1.526 1.526 0 01-.437-1.382l2.24-13.452a16.61 16.61 0 00-.599-7.869L374.142 116.37l21.5 21.5zM352.641 73.657l15.076-15.076 85.712 85.712-15.076 15.076zm136.592 34.831l-25.197 25.198-85.712-85.712 25.198-25.197c10.353-10.354 27.2-10.353 37.553 0l48.159 48.159c10.352 10.353 10.352 27.199-.001 37.552z"/></svg>